<?xml version="1.0" encoding="UTF-8"?>
<svg width="34.36mm" height="19.56mm" inkscape:version="1.0.2 (e86c870879, 2021-01-15, custom)" sodipodi:docname="Colliers_logo.svg" version="1.1" viewBox="0 0 34.36 19.56" xmlns="http://www.w3.org/2000/svg" xmlns:cc="http://creativecommons.org/ns#" xmlns:dc="http://purl.org/dc/elements/1.1/" xmlns:inkscape="http://www.inkscape.org/namespaces/inkscape" xmlns:rdf="http://www.w3.org/1999/02/22-rdf-syntax-ns#" xmlns:sodipodi="http://sodipodi.sourceforge.net/DTD/sodipodi-0.dtd">
 <defs>
  <clipPath id="cvfa">
   <path d="m260.5 489.6h97.4v55.44h-97.4z"/>
  </clipPath>
 </defs>
 <sodipodi:namedview id="cvfb" bordercolor="#666666" borderopacity="1.0" inkscape:current-layer="g901" inkscape:cx="-189.78096" inkscape:cy="198.36883" inkscape:document-rotation="0" inkscape:document-units="mm" inkscape:pageopacity="0.0" inkscape:pageshadow="2" inkscape:window-height="1014" inkscape:window-maximized="1" inkscape:window-width="1920" inkscape:window-x="0" inkscape:window-y="36" inkscape:zoom="1.1855609" pagecolor="#ffffff" showgrid="false"/>
 <title>Colliers logo</title>
 <metadata>
  <rdf:RDF>
   <cc:Work rdf:about="">
    <dc:format>image/svg+xml</dc:format>
    <dc:type rdf:resource="http://purl.org/dc/dcmitype/StillImage"/>
    <dc:title/>
   </cc:Work>
  </rdf:RDF>
 </metadata>
 <g transform="translate(-6.3 -4.058)" inkscape:groupmode="layer" inkscape:label="Layer 1">
  <g transform="matrix(.3528 0 0 -.3528 -85.61 196.3)">
   <g clip-path="url(#cvfa)">
    <g transform="translate(352.3 545)">
     <path d="m0 0h-86.2c-3.088 0-5.601-2.515-5.601-5.605v-44.25c0-2.953 2.312-5.407 5.262-5.586l86.84-3e-3 0.047 3e-3c2.95 0.179 5.261 2.633 5.261 5.599v44.23c0 3.09-2.512 5.605-5.6 5.605" style="fill:#fff"/>
    </g>
    <path d="m262.1 499.3h94.3v-4.053h-94.3z" style="fill:#32ace7"/>
    <path d="m262.1 503.4h94.3v-4.124h-94.3z" style="fill:#fcd405"/>
    <g transform="translate(265.9 491.1)">
     <path d="m0 0h86.69c2.12 0.129 3.805 1.885 3.805 4.039v0.014h-94.3v-0.014c0-2.154 1.685-3.91 3.806-4.039" style="fill:#ee2722"/>
    </g>
    <g transform="translate(352.3 543.5)">
     <path d="m0 0h-86.2c-2.237 0-4.05-1.816-4.05-4.056v-36.06h94.3v36.06c0 2.24-1.812 4.056-4.05 4.056" style="fill:#1d3f8a"/>
    </g>
    <g transform="translate(298.3 523.7)">
     <path d="m0 0c1.14-1.142 1.678-2.407 1.678-3.837 0-1.365-0.587-2.676-1.509-3.695-0.996-1.118-2.454-1.749-4.079-1.749-1.534 0-2.845 0.44-3.937 1.749-1.069 1.265-1.313 2.284-1.313 3.767 0 1.166 0.586 2.865 2.04 4.031 1.191 0.976 2.458 1.169 3.448 1.169 1.629 0 2.845-0.636 3.672-1.435m-1.288-3.765c0 2.673-1.41 4.231-2.53 4.231-0.629 0-1.114-0.2-1.527-0.664-0.755-0.849-1.046-1.867-1.046-3.639 0-1.411 0.098-2.334 0.756-3.376 0.411-0.659 0.947-1.049 1.916-1.049 1.604 0 2.431 2.018 2.431 4.497" style="fill:#fff"/>
    </g>
    <g transform="translate(322.3 520.1)">
     <path d="m0 0c0-2.479 1.773-3.936 3.157-3.936 1.507 0 2.427 0.635 2.94 1.41 0.1 0.17 0.196 0.17 0.295 0.121l0.36-0.217c0.122-0.072 0.171-0.171 0-0.486-0.51-0.925-1.748-2.577-4.42-2.577-1.556 0-2.649 0.339-3.498 1.31-1.118 1.29-1.363 2.505-1.363 4.01 0 1.333 0.15 2.237 1.194 3.598 1.018 1.31 2.111 1.799 4.227 1.799 2.769 0 3.67-2.893 3.67-3.892 0-0.363-0.245-0.389-0.684-0.389h-5.878zm3.012 1.628c0.509 0 0.803 0.146 0.803 0.341 0 0.728-0.244 2.162-1.506 2.162-1.192 0-1.923-0.876-2.236-2.503z" style="fill:#fff"/>
    </g>
    <g transform="translate(331.8 521)">
     <path d="m0 0c0 1.12-0.192 1.506-0.922 1.895l-0.436 0.244c-0.143 0.05-0.192 0.096-0.192 0.197v0.145c0 0.095 0.049 0.143 0.192 0.218l2.939 1.386c0.147 0.047 0.243 0.097 0.39 0.097 0.146 0 0.192-0.148 0.219-0.295l0.218-1.748h0.098c0.825 1.361 1.846 2.189 2.914 2.189 0.778 0 1.263-0.539 1.263-1.217 0-0.682-0.68-1.312-1.312-1.312-0.341 0-0.632 0.096-0.828 0.193-0.191 0.147-0.434 0.197-0.678 0.197-0.29 0-0.726-0.197-1.019-0.706-0.193-0.34-0.293-0.871-0.293-1.192v-4.687c0-0.777 0.196-1.021 0.681-1.021h1.072c0.143 0 0.192-0.047 0.192-0.166v-0.564c0-0.12-0.049-0.17-0.171-0.17-0.17 0-1.239 0.074-3.015 0.074-1.697 0-2.645-0.074-2.838-0.074-0.124 0-0.172 0.05-0.172 0.17v0.533c0 0.15 0.048 0.197 0.216 0.197h0.854c0.388 0 0.628 0.192 0.628 0.657z" style="fill:#fff"/>
    </g>
    <g transform="translate(339.2 517.8)">
     <path d="m0 0c-0.024 0.098 0 0.173 0.07 0.197l0.463 0.143c0.098 0.026 0.17 0.026 0.219-0.072l0.8-1.36c0.44-0.732 0.901-1.308 2.092-1.308 0.948 0 1.724 0.576 1.724 1.48 0 0.972-0.632 1.412-2.331 1.895-1.652 0.484-2.967 1.311-2.967 3.038 0 1.066 0.39 1.942 1.241 2.55 0.849 0.581 1.531 0.803 2.526 0.803 1.19 0 1.92-0.295 2.358-0.536 0.363-0.192 0.435-0.292 0.459-0.433l0.32-1.657c0.021-0.097 0.021-0.217-0.025-0.267l-0.464-0.218c-0.071-0.024-0.145 0-0.193 0.099l-1.169 1.311c-0.291 0.315-0.729 0.749-1.528 0.749-0.899 0-1.678-0.532-1.678-1.383 0-0.996 0.731-1.291 2.187-1.674 1.121-0.29 1.802-0.584 2.432-1.263 0.535-0.535 0.727-1.119 0.727-1.947 0-2.039-1.653-3.497-4.055-3.497-1.291 0-2.357 0.413-2.628 0.631-0.095 0.1-0.166 0.17-0.193 0.266z" style="fill:#fff"/>
    </g>
    <g transform="translate(318.8 515.6)">
     <path d="m0 0h-0.972c-0.244 0-0.342 0.192-0.388 0.632-0.051 0.292-0.051 1.17-0.051 2.093v2.62c0 2.017 0 3.572 0.051 3.959 0.023 0.198-0.051 0.295-0.197 0.295-0.144 0-0.338-0.05-0.582-0.148-0.415-0.168-2.818-1.02-3.158-1.165-0.123-0.049-0.172-0.098-0.172-0.194v-0.269c0-0.094 0.024-0.169 0.244-0.217 1.118-0.294 1.265-0.778 1.265-1.507v-3.428c0-0.678-0.024-1.455-0.05-2.185-0.025-0.392-0.146-0.486-0.388-0.486 0 0-0.174-0.036-1.203-0.036-1.036 0-1.312 0.036-1.312 0.036-0.533 0-0.58 0.341-0.63 0.781-0.049 0.727-0.049 3.203-0.049 4.32v3.502c0 1.335 0.049 6.39 0.099 7.699 0 0.341-0.099 0.437-0.243 0.437-0.1 0-0.243-0.046-0.534-0.144-0.78-0.486-2.674-1.118-3.644-1.41-0.151-0.048-0.194-0.143-0.194-0.192v-0.29c0-0.103 0-0.148 0.145-0.201l0.485-0.143c0.777-0.243 1.19-0.632 1.238-1.457 0.048-0.632 0.099-2.72 0.099-4.421v-7.608c0-0.681-0.367-0.873-0.607-0.873 0 0-0.365-0.036-1.256-0.036-0.892 0-1.239 0.036-1.239 0.036-0.537 0-0.587 0.341-0.635 0.781-0.049 0.727-0.049 3.203-0.049 4.32v3.502c0 1.335 0.049 6.39 0.097 7.699 0 0.341-0.097 0.437-0.24 0.437-0.097 0-0.242-0.046-0.536-0.144-0.779-0.486-2.67-1.118-3.643-1.41-0.147-0.048-0.196-0.143-0.196-0.192v-0.29c0-0.103 0-0.148 0.149-0.201l0.484-0.143c0.778-0.243 1.188-0.632 1.239-1.457 0.05-0.632 0.098-2.72 0.098-4.421v-7.608c0-0.681-0.364-0.873-0.608-0.873h-0.925c-0.288 0-0.337-0.047-0.337-0.197v-0.46c0-0.145 0.049-0.243 0.194-0.243 0.097 0 4.755 0.045 9.336 0.045 4.42 0 8.767-0.045 8.863-0.045 0.147 0 0.196 0.098 0.196 0.243v0.49c0 0.12-0.049 0.167-0.244 0.167" style="fill:#fff"/>
    </g>
    <g transform="translate(287.9 518.2)">
     <path d="m0 0c-0.158 0.15-0.44 0.4-0.459 0.424-0.027 0.03-0.112 4e-3 -0.137-0.027-1.08-1.369-3.088-2.553-5.597-2.553-1.166 0-2.576 0.196-4.176 1.898-1.8 1.944-2.238 4.81-2.238 6.317 0 3.494 1.605 6.995 5.489 6.995 1.899 0 3.162-0.776 4.231-1.796 1.017-1.067 1.603-2.282 1.895-3.156 0.071-0.196 0.146-0.293 0.265-0.246l0.461 0.146c0.098 0.025 0.123 0.1 0.098 0.247-0.098 0.727-0.583 4.612-0.583 5.046 0 0.343-0.047 0.392-0.341 0.392-0.29 0-0.342 0-0.386-0.15l-0.198-0.628c-0.046-0.192-0.145-0.192-0.485 0-0.873 0.482-2.671 1.166-4.907 1.166-2.915 0-5.004-1.166-6.317-2.575-1.701-1.848-2.477-4.131-2.477-6.51 0-2.139 0.826-4.957 2.623-6.562 1.51-1.36 3.256-2.284 6.368-2.284 3.198 0 5.431 1.714 6.905 3.627 0.027 0.04 0.038 0.164-0.034 0.229" style="fill:#fff"/>
    </g>
    <g transform="translate(317.3 528.3)">
     <path d="m0 0c0-0.817-0.663-1.48-1.482-1.48-0.821 0-1.481 0.663-1.481 1.48 0 0.818 0.66 1.484 1.481 1.484 0.819 0 1.482-0.666 1.482-1.484" style="fill:#fff"/>
    </g>
   </g>
  </g>
 </g>
</svg>
