<?xml version="1.0" encoding="UTF-8"?><svg id="Calque_1" xmlns="http://www.w3.org/2000/svg" viewBox="0 0 752.16 178.7"><defs><style>.cls-1,.cls-2{stroke-width:0px;}.cls-2{fill:#d0103a;}</style></defs><path class="cls-1" d="m245.83,59.96c-3.16-1.6-7.05-2.4-11.66-2.4h-31.31v66.52h12.6v-24.39h18.72c4.61,0,8.5-.81,11.66-2.44,3.16-1.62,5.57-3.99,7.23-7.1,1.66-3.1,2.48-6.96,2.48-11.58s-.83-8.4-2.48-11.53c-1.66-3.13-4.07-5.5-7.23-7.1Zm-4.83,25.23c-.77,1.57-2.06,2.69-3.86,3.37-1.8.68-4.33,1.02-7.58,1.02h-14.1v-21.91h14.1c3.25,0,5.78.34,7.58,1.02,1.8.68,3.09,1.8,3.86,3.37.77,1.57,1.15,3.77,1.15,6.61s-.39,4.95-1.15,6.52Z"/><path class="cls-1" d="m280.71,77.12c-1.89,1.15-3.39,2.65-4.48,4.48-.61,1.02-1.12,2.09-1.55,3.22v-8.63h-11.97v47.9h12.24v-25.72c0-2.37.47-4.48,1.42-6.34.94-1.86,2.32-3.33,4.12-4.39,1.8-1.06,3.92-1.6,6.34-1.6h5.32v-10.64h-4.61c-2.66,0-4.94.58-6.83,1.73Z"/><path class="cls-1" d="m331.85,78.14c-3.52-1.89-7.79-2.84-12.82-2.84s-9.3.95-12.82,2.84c-3.52,1.89-6.2,4.69-8.03,8.38-1.83,3.7-2.75,8.24-2.75,13.62s.92,9.92,2.75,13.62c1.83,3.7,4.51,6.49,8.03,8.38,3.52,1.89,7.79,2.84,12.82,2.84s9.3-.95,12.82-2.84c3.52-1.89,6.19-4.69,8.03-8.38,1.83-3.69,2.75-8.23,2.75-13.62s-.92-9.92-2.75-13.62c-1.83-3.69-4.51-6.49-8.03-8.38Zm-2.79,30.78c-.77,2.25-1.98,3.89-3.64,4.92-1.66,1.04-3.79,1.55-6.39,1.55s-4.73-.52-6.39-1.55c-1.66-1.03-2.88-2.67-3.68-4.92-.8-2.25-1.2-5.17-1.2-8.78s.4-6.53,1.2-8.78c.8-2.25,2.01-3.89,3.64-4.92,1.63-1.03,3.74-1.55,6.34-1.55s4.82.52,6.48,1.55c1.65,1.04,2.87,2.68,3.64,4.92.77,2.25,1.15,5.17,1.15,8.78s-.39,6.54-1.15,8.78Z"/><path class="cls-1" d="m386.93,78.19c-2.96-1.92-6.47-2.88-10.55-2.88-3.67,0-6.88.77-9.62,2.31-2.43,1.36-4.25,3.25-5.46,5.68v-7.1h-11.62v65.9h12.24v-23.6c1.13,1.84,2.7,3.29,4.7,4.36,2.66,1.42,5.73,2.13,9.22,2.13,6.33,0,11.29-2.2,14.9-6.61,3.61-4.41,5.41-10.54,5.41-18.41,0-5.15-.8-9.58-2.39-13.31-1.6-3.73-3.88-6.55-6.83-8.47Zm-4.3,30.34c-.8,2.22-2.01,3.86-3.64,4.92-1.63,1.06-3.71,1.6-6.25,1.6-3.79,0-6.58-1.2-8.38-3.59-1.8-2.39-2.71-6.17-2.71-11.31,0-3.43.4-6.24,1.2-8.43.8-2.19,2.01-3.81,3.64-4.88,1.63-1.06,3.71-1.6,6.25-1.6s4.62.52,6.25,1.55c1.63,1.04,2.84,2.65,3.64,4.83.8,2.19,1.2,5,1.2,8.43s-.4,6.25-1.2,8.47Z"/><path class="cls-1" d="m421.3,77.12c-1.89,1.15-3.39,2.65-4.48,4.48-.61,1.02-1.12,2.09-1.55,3.22v-8.63h-11.97v47.9h12.24v-25.72c0-2.37.47-4.48,1.42-6.34.95-1.86,2.32-3.33,4.12-4.39s3.92-1.6,6.34-1.6h5.32v-10.64h-4.61c-2.66,0-4.94.58-6.83,1.73Z"/><rect class="cls-1" x="438.81" y="76.19" width="12.24" height="47.9"/><rect class="cls-1" x="438.81" y="57.57" width="12.24" height="10.91"/><path class="cls-1" d="m494.69,78.14c-3.52-1.89-7.79-2.84-12.82-2.84s-9.3.95-12.82,2.84c-3.52,1.89-6.2,4.69-8.03,8.38-1.83,3.7-2.75,8.24-2.75,13.62s.92,9.92,2.75,13.62c1.83,3.7,4.51,6.49,8.03,8.38,3.52,1.89,7.79,2.84,12.82,2.84s9.3-.95,12.82-2.84c3.52-1.89,6.19-4.69,8.03-8.38,1.83-3.69,2.75-8.23,2.75-13.62s-.92-9.92-2.75-13.62c-1.83-3.69-4.51-6.49-8.03-8.38Zm-2.79,30.78c-.77,2.25-1.98,3.89-3.64,4.92-1.66,1.04-3.79,1.55-6.39,1.55s-4.73-.52-6.39-1.55c-1.66-1.03-2.88-2.67-3.68-4.92-.8-2.25-1.2-5.17-1.2-8.78s.4-6.53,1.2-8.78c.8-2.25,2.01-3.89,3.64-4.92,1.62-1.03,3.74-1.55,6.34-1.55s4.82.52,6.47,1.55c1.66,1.04,2.87,2.68,3.64,4.92.77,2.25,1.15,5.17,1.15,8.78s-.38,6.54-1.15,8.78Z"/><path class="cls-1" d="m556.86,61.2c-4.11-2.42-9.27-3.64-15.48-3.64h-25.37v66.52h25.37c6.21,0,11.37-1.2,15.48-3.59,4.11-2.39,7.2-6.06,9.27-11,2.07-4.94,3.1-11.16,3.1-18.67s-1.04-13.64-3.1-18.58c-2.07-4.94-5.16-8.62-9.27-11.04Zm3.19,45.68c-1.51,3.96-3.92,6.86-7.23,8.69-3.31,1.83-7.78,2.75-13.39,2.75h-16.59v-54.99h16.94c5.44,0,9.8.92,13.08,2.75,3.28,1.83,5.68,4.75,7.18,8.74,1.51,3.99,2.26,9.33,2.26,16.01s-.75,12.09-2.26,16.05Z"/><rect class="cls-1" x="580.69" y="57.57" width="6.21" height="9.76"/><rect class="cls-1" x="580.69" y="76.19" width="6.21" height="47.9"/><path class="cls-1" d="m611.37,77.39c-1.95,1.1-3.47,2.37-4.57,3.81-.88,1.17-1.57,2.36-2.08,3.58v-8.59h-6.21v47.9h6.21v-27.41c0-2.9.58-5.48,1.73-7.76,1.15-2.28,2.82-4.08,5.01-5.41,2.19-1.33,4.73-2,7.63-2h3.73v-5.77h-4.43c-2.72,0-5.06.55-7.01,1.64Z"/><path class="cls-1" d="m648.96,75.31c-4.85,0-8.86.92-12.02,2.75-3.16,1.83-5.51,4.58-7.05,8.25-1.54,3.67-2.31,8.28-2.31,13.84s.78,10.17,2.35,13.84c1.57,3.67,3.93,6.42,7.1,8.25,3.16,1.83,7.11,2.75,11.84,2.75,3.9,0,7.32-.59,10.24-1.77,2.93-1.18,5.28-2.91,7.05-5.19,1.77-2.28,2.84-4.98,3.19-8.12h-6.12c-.71,3.14-2.28,5.51-4.7,7.14-2.43,1.63-5.65,2.44-9.67,2.44-3.55,0-6.43-.68-8.65-2.04-2.22-1.36-3.84-3.46-4.88-6.3-.93-2.56-1.44-5.81-1.53-9.76h36.26v-3.55c0-7.51-1.77-13.14-5.32-16.9-3.55-3.75-8.81-5.63-15.79-5.63Zm-15.04,21.11c.22-2.92.7-5.39,1.46-7.41,1.06-2.81,2.71-4.89,4.92-6.25,2.22-1.36,5.1-2.04,8.65-2.04,4.97,0,8.68,1.27,11.13,3.81,2.45,2.54,3.77,6.51,3.95,11.89h-30.11Z"/><path class="cls-1" d="m710.86,114.11c-1.15,1.8-2.74,3.15-4.75,4.04-2.01.89-4.49,1.33-7.45,1.33-3.49,0-6.33-.68-8.52-2.04-2.19-1.36-3.79-3.44-4.79-6.25-1.01-2.81-1.51-6.52-1.51-11.13s.5-8.23,1.51-11.04c1-2.81,2.6-4.88,4.79-6.21,2.19-1.33,5.03-2,8.52-2,4.43,0,7.86,1.04,10.29,3.1,2.42,2.07,3.75,5.06,3.99,8.96h6.3c-.06-3.67-.92-6.81-2.57-9.45-1.66-2.63-4.01-4.64-7.05-6.03-3.05-1.39-6.73-2.08-11.04-2.08-4.67,0-8.58.93-11.71,2.79-3.13,1.86-5.5,4.61-7.1,8.25s-2.39,8.23-2.39,13.79.78,10.1,2.35,13.79c1.57,3.7,3.93,6.46,7.1,8.29,3.16,1.83,7.11,2.75,11.84,2.75,4.14,0,7.75-.7,10.82-2.08,3.07-1.39,5.46-3.42,7.14-6.08,1.69-2.66,2.62-5.82,2.79-9.49h-6.3c-.36,2.72-1.11,4.98-2.26,6.79Z"/><path class="cls-1" d="m746.31,118.68c-1.83,0-3.24-.24-4.21-.71-.98-.47-1.63-1.18-1.95-2.13-.33-.95-.49-2.22-.49-3.81v-30.42h12.42v-5.41h-12.42v-14.19h-6.21v14.19h-8.96v5.41h8.96v31.31c0,2.6.37,4.72,1.11,6.34.74,1.63,1.92,2.84,3.55,3.64,1.62.8,3.83,1.2,6.61,1.2h7.45v-5.41h-5.85Z"/><path class="cls-1" d="m209.16,160.31l-6.68,18.15h2.49l1.69-4.96h7.57l1.68,4.96h2.64l-6.68-18.15h-2.71Zm-1.82,11.18l3-8.83h.22l2.99,8.83h-6.21Z"/><path class="cls-1" d="m239.81,171.05h5.42c-.02,1.08-.19,2.01-.51,2.77-.4.96-1.03,1.67-1.89,2.14-.86.47-1.96.7-3.32.7s-2.47-.25-3.29-.74c-.82-.49-1.42-1.26-1.8-2.31s-.57-2.46-.57-4.24.19-3.16.56-4.21c.37-1.05.96-1.82,1.75-2.32.8-.5,1.86-.75,3.18-.75,1.63,0,2.92.36,3.86,1.08s1.46,1.74,1.56,3.06h2.4c-.08-1.27-.45-2.38-1.1-3.3-.65-.93-1.56-1.64-2.71-2.13-1.15-.49-2.49-.74-4.01-.74-1.73,0-3.18.35-4.36,1.04-1.18.69-2.06,1.73-2.65,3.11-.59,1.38-.88,3.1-.88,5.17s.3,3.81.9,5.19c.6,1.38,1.49,2.41,2.67,3.1,1.19.69,2.67,1.03,4.47,1.03,1.69,0,3.07-.31,4.13-.93.89-.52,1.55-1.28,2-2.25v2.94h1.77v-9.37h-7.57v1.96Z"/><polygon class="cls-1" points="264.74 170.33 273.82 170.33 273.82 168.29 264.74 168.29 264.74 162.32 274.79 162.32 274.79 160.31 262.37 160.31 262.37 178.46 275.01 178.46 275.01 176.45 264.74 176.45 264.74 170.33"/><polygon class="cls-1" points="301.76 175.51 301.57 175.51 293.19 160.31 290 160.31 290 178.46 292.27 178.46 292.27 163.31 292.47 163.31 300.82 178.46 304.03 178.46 304.03 160.31 301.76 160.31 301.76 175.51"/><path class="cls-1" d="m331.54,174.5c-.44.72-1.04,1.26-1.81,1.62-.77.36-1.72.54-2.83.54-1.29,0-2.33-.25-3.12-.76-.79-.51-1.38-1.29-1.77-2.36-.39-1.06-.58-2.46-.58-4.19s.19-3.12.57-4.17.97-1.83,1.77-2.34c.8-.5,1.85-.75,3.16-.75,1.11,0,2.05.17,2.82.52.77.35,1.36.86,1.78,1.55.42.69.67,1.54.75,2.55h2.37c-.03-1.4-.37-2.6-1-3.61-.64-1-1.53-1.76-2.67-2.27-1.15-.52-2.5-.77-4.07-.77-1.73,0-3.18.35-4.36,1.04-1.18.69-2.06,1.73-2.64,3.12-.58,1.39-.87,3.11-.87,5.15s.29,3.77.88,5.16,1.47,2.43,2.64,3.12c1.17.69,2.63,1.04,4.37,1.04,1.52,0,2.85-.27,4.01-.82,1.15-.55,2.05-1.34,2.7-2.37.65-1.03.99-2.24,1.04-3.63h-2.37c-.06,1.03-.31,1.91-.75,2.62Z"/><polygon class="cls-1" points="352.02 170.33 361.1 170.33 361.1 168.29 352.02 168.29 352.02 162.32 362.07 162.32 362.07 160.31 349.65 160.31 349.65 178.46 362.29 178.46 362.29 176.45 352.02 176.45 352.02 170.33"/><rect class="cls-1" x="394.36" y="160.31" width="2.4" height="18.15"/><polygon class="cls-1" points="421.29 175.75 421.12 175.75 415.92 160.31 412.31 160.31 412.31 178.46 414.59 178.46 414.59 162.99 414.78 162.99 420.01 178.46 422.4 178.46 427.61 162.99 427.8 162.99 427.8 178.46 430.08 178.46 430.08 160.31 426.47 160.31 421.29 175.75"/><polygon class="cls-1" points="454.62 175.75 454.46 175.75 449.25 160.31 445.65 160.31 445.65 178.46 447.92 178.46 447.92 162.99 448.11 162.99 453.34 178.46 455.74 178.46 460.94 162.99 461.13 162.99 461.13 178.46 463.41 178.46 463.41 160.31 459.8 160.31 454.62 175.75"/><path class="cls-1" d="m491,161.11c-1.21-.69-2.72-1.04-4.53-1.04s-3.29.35-4.51,1.05c-1.22.7-2.13,1.75-2.75,3.13s-.92,3.11-.92,5.15.31,3.76.92,5.14c.61,1.38,1.53,2.42,2.75,3.11,1.22.69,2.72,1.04,4.51,1.04s3.32-.35,4.53-1.04c1.21-.69,2.12-1.73,2.72-3.11.61-1.38.91-3.09.91-5.14s-.3-3.79-.91-5.18c-.6-1.39-1.51-2.43-2.72-3.12Zm.64,12.45c-.4,1.06-1.02,1.84-1.86,2.35-.85.51-1.95.76-3.3.76s-2.45-.26-3.29-.77c-.84-.52-1.46-1.3-1.88-2.36-.41-1.06-.62-2.43-.62-4.13s.21-3.1.62-4.16c.41-1.07,1.04-1.86,1.88-2.37.84-.52,1.94-.77,3.29-.77s2.46.25,3.3.75c.85.5,1.47,1.29,1.86,2.36.4,1.07.59,2.47.59,4.2s-.2,3.09-.59,4.15Z"/><path class="cls-1" d="m520.57,168.95v-.17c.69-.1,1.25-.49,1.67-1.19.42-.69.63-1.56.63-2.59s-.19-1.83-.58-2.53c-.39-.7-.96-1.24-1.71-1.61-.75-.37-1.67-.56-2.75-.56h-8.3v18.15h8.45c1.16,0,2.15-.19,2.98-.56.82-.37,1.44-.93,1.86-1.68.42-.75.63-1.68.63-2.79,0-1.27-.25-2.3-.76-3.09-.51-.78-1.21-1.25-2.12-1.39Zm-8.66-6.73h4.62c1.07,0,1.88.08,2.43.25.56.17.95.47,1.17.9.23.43.34,1.04.34,1.83s-.12,1.4-.35,1.83c-.23.43-.64.73-1.21.91-.57.18-1.39.27-2.46.27h-4.55v-5.98Zm8.79,13.08c-.24.46-.65.78-1.22.97-.57.19-1.38.28-2.43.28h-5.13v-6.46h5.16c1.05,0,1.85.1,2.42.29.56.19.97.52,1.21.98.24.46.36,1.12.36,1.97s-.12,1.51-.36,1.97Z"/><rect class="cls-1" x="538.32" y="160.31" width="2.4" height="18.15"/><polygon class="cls-1" points="558.67 160.31 556.27 160.31 556.27 178.46 568.13 178.46 568.13 176.45 558.67 176.45 558.67 160.31"/><rect class="cls-1" x="582.49" y="160.31" width="2.4" height="18.15"/><polygon class="cls-1" points="608.12 158.69 605.73 155.37 603.45 155.37 606.16 158.69 608.12 158.69"/><polygon class="cls-1" points="602.82 170.33 611.9 170.33 611.9 168.29 602.82 168.29 602.82 162.32 612.87 162.32 612.87 160.31 600.45 160.31 600.45 178.46 613.08 178.46 613.08 176.45 602.82 176.45 602.82 170.33"/><path class="cls-1" d="m641.32,174.01c0-.89-.09-1.62-.28-2.21s-.48-1.06-.87-1.4-.91-.59-1.54-.74v-.19c.56-.1,1.06-.33,1.48-.69.42-.36.73-.85.94-1.45.21-.6.32-1.3.32-2.09,0-1.03-.19-1.92-.57-2.65-.38-.73-.93-1.29-1.66-1.68-.73-.39-1.6-.58-2.61-.58h-8.98v18.13h2.37v-7.7h5.2c.98,0,1.75.1,2.3.3.55.2.94.53,1.19.99.24.46.36,1.1.36,1.92,0,.95.02,1.81.07,2.59.05.77.11,1.41.19,1.91h2.37c-.08-.42-.15-1.07-.21-1.96-.06-.89-.08-1.72-.08-2.49Zm-3.9-5.46c-.55.2-1.31.3-2.3.3h-5.2v-6.63h5.64c.86,0,1.53.11,2.02.31.49.21.85.55,1.07,1.03.22.48.33,1.13.33,1.97s-.12,1.52-.36,2c-.24.48-.64.82-1.19,1.02Z"/><polygon class="cls-1" points="659.02 176.45 659.02 170.33 668.1 170.33 668.1 168.29 659.02 168.29 659.02 162.32 669.07 162.32 669.07 160.31 656.65 160.31 656.65 178.46 669.28 178.46 669.28 176.45 659.02 176.45"/><polygon class="cls-2" points="94.65 0 0 50.32 0 178.48 94.65 178.48 94.65 151.43 27.09 151.43 27.04 66.57 94.65 30.65 162.25 66.57 162.25 35.94 94.65 0"/><polygon class="cls-2" points="54.09 93.46 54.09 124.09 94.65 102.5 135.21 124.09 135.21 178.48 162.25 178.48 162.25 107.84 94.65 71.89 54.09 93.46"/></svg>