<?xml version="1.0" encoding="UTF-8" standalone="no"?>
<svg
   id="Layer_1"
   version="1.1"
   viewBox="0 0 800 219.34273"
   sodipodi:docname="REMAX-logo.svg"
   width="800"
   height="219.34273"
   inkscape:version="1.4.2 (f4327f4, 2025-05-13)"
   xmlns:inkscape="http://www.inkscape.org/namespaces/inkscape"
   xmlns:sodipodi="http://sodipodi.sourceforge.net/DTD/sodipodi-0.dtd"
   xmlns="http://www.w3.org/2000/svg"
   xmlns:svg="http://www.w3.org/2000/svg">
  <sodipodi:namedview
     id="namedview11"
     pagecolor="#505050"
     bordercolor="#ffffff"
     borderopacity="1"
     inkscape:showpageshadow="0"
     inkscape:pageopacity="0"
     inkscape:pagecheckerboard="1"
     inkscape:deskcolor="#505050"
     inkscape:zoom="4.0900818"
     inkscape:cx="108.79978"
     inkscape:cy="29.217019"
     inkscape:window-width="1920"
     inkscape:window-height="1009"
     inkscape:window-x="-8"
     inkscape:window-y="-8"
     inkscape:window-maximized="1"
     inkscape:current-layer="Layer_1" />
  <!-- Generator: Adobe Illustrator 29.3.1, SVG Export Plug-In . SVG Version: 2.1.0 Build 151)  -->
  <defs
     id="defs1">
    <style
       id="style1">
      .st0 {
        fill: #f7f5ee;
      }

      .st1 {
        fill: #0043ff;
      }

      .st2 {
        fill: #600;
      }

      .st3 {
        fill: #fff;
      }

      .st4 {
        fill: #000e35;
      }

      .st5 {
        fill: #ff1200;
      }
    </style>
  </defs>
  <g
     id="g4"
     transform="translate(-1.1,-0.8)" />
  <g
     id="g14"
     transform="matrix(3.7558685,0,0,3.7558685,-4.1314554,-3.0046948)">
    <g
       id="g13">
      <g
         id="g12">
        <path
           d="M 199.9,37.3 212.5,16.8 H 200.4 L 193.2,29.7 186,16.8 h -12.6 l 12.6,20.1 -8.6,14 -11.6,-34.1 H 152.1 L 139.8,52.7 V 16.8 h -13 L 117.4,45.4 108,16.8 h -4.6 l -8.5,16.4 v 26 H 105 v -25 l 8.1,25 h 8.1 l 8.2,-25.1 v 25.1 h 19.4 l 2.6,-8.1 h 14.7 l 2.5,8.1 v 0 c 0,0 0,0 0,0 h 15.8 l 8.2,-14.8 8.8,14.8 h 12.7 L 199.8,37.4 Z M 154.1,42 158.8,26.2 163.5,42 H 154 Z"
           id="path1" />
      </g>
      <g
         id="g3">
        <path
           d="M 94.9,25.7 V 16.8 H 65.7 V 59.1 H 81.4 L 86,50.2 h -9.2 v -8.1 h 13.4 l 4.7,-9 H 76.8 v -7.5 h 18.1 z"
           id="path2" />
        <path
           d="m 51.2,34.7 c -1,0.9 -2.7,1.4 -5.1,1.4 H 40.4 V 25.4 H 46 c 2.5,0 4.2,0.4 5.2,1.3 1,0.9 1.5,2.2 1.5,4 0,1.8 -0.5,3.2 -1.5,4.1 z m 5.7,7.5 c 4.3,-2.5 6.5,-6.5 6.5,-12 0,-5.5 -1.3,-7.4 -4,-9.8 C 56.7,18 52.5,16.8 46.6,16.8 h -17 V 59.1 H 40.3 V 44.5 h 6.6 L 54,59.1 h 11.7 l -8.8,-17 z"
           id="path3" />
      </g>
    </g>
    <g
       id="g11">
      <path
         class="st3"
         d="M 14.4,31 C 13.9,31 13.5,30.7 13.1,30.4 10.7,28.4 6.5,24.7 4.9,22.6 3.5,20.9 2.2,19.3 1.6,17.2 1.2,16 1.1,14.8 1.1,13.6 1.1,12.4 1.4,10.4 2,8.9 4,4 8.9,0.8 14.4,0.8 19.9,0.8 24.8,4 26.8,9 c 0.6,1.5 0.9,3.1 0.9,4.7 0,1.6 -0.2,2.4 -0.5,3.6 -0.6,2 -1.8,3.6 -3.3,5.4 -1.7,2 -5.9,5.7 -8.2,7.7 -0.4,0.3 -0.8,0.6 -1.3,0.6 z"
         id="path5" />
      <g
         id="g10">
        <g
           id="g7">
          <path
             class="st0"
             d="M 26.2,9.2 H 2.6 c -0.6,1.4 -0.9,2.9 -0.9,4.4 0,1.5 0.2,2.3 0.5,3.4 H 26.5 C 26.8,15.9 27,14.8 27,13.6 27,12.4 26.7,10.5 26.1,9.2 Z"
             id="path6" />
          <path
             class="st2"
             d="M 14.4,1.5 C 9,1.5 4.4,4.7 2.6,9.2 H 26.2 C 24.4,4.7 19.8,1.5 14.4,1.5 Z"
             id="path7" />
        </g>
        <path
           class="st4"
           d="m 2.2,17.1 c 0.6,2 1.9,3.6 3.2,5.2 1.7,2.1 6.4,6.2 8.2,7.8 v 0 c 0.2,0.2 0.5,0.4 0.8,0.4 0.3,0 0.5,-0.2 0.8,-0.4 v 0 c 1.8,-1.6 6.5,-5.7 8.2,-7.8 1.3,-1.6 2.6,-3.2 3.2,-5.2 z"
           id="path8" />
        <path
           class="st5"
           d="M 26.2,9.2 H 14.4 V 3.6 c 0,-1.2 1.1,-2.1 2.3,-1.9 4.4,0.8 8,3.7 9.5,7.5 z"
           id="path9" />
        <path
           class="st1"
           d="m 26.5,17.1 c -0.6,2 -1.9,3.6 -3.2,5.2 -1.7,2.1 -6.4,6.2 -8.2,7.8 v 0 c -0.2,0.2 -0.5,0.4 -0.8,0.4 V 19.2 c 0,-1.1 0.9,-2 2,-2 h 10.1 z"
           id="path10" />
      </g>
    </g>
  </g>
</svg>
