<?xml version="1.0" encoding="UTF-8"?><svg id="Layer_1" xmlns="http://www.w3.org/2000/svg" viewBox="0 0 1092 578.07"><defs><style>.cls-1{fill:#231f20;}.cls-1,.cls-2,.cls-3{stroke-width:0px;}.cls-2{fill:#fff;}.cls-3{fill:#ea1d2d;}</style></defs><rect class="cls-2" width="1092" height="578.07"/><path class="cls-1" d="M83.67,154.51c19.13,0,30.47,12.83,30.47,26.77,0,10.24-5.32,17.89-15.99,22.81,9.57,4.78,12.44,16.25,25.55,43.57h-25.55c-9.97-19.93-13.65-37.83-26.22-37.83h-6.69v37.83h-23.22v-93.15h41.65ZM65.24,192.75h12.28c6.43,0,12.71-2.74,12.71-10.65,0-6.96-4.52-10.53-13.26-10.53h-11.73v21.18Z"/><path class="cls-1" d="M181.3,248.89c-34.15,0-53.4-24.05-53.4-47.81,0-22.54,18.29-47.82,53.4-47.82s53.27,25.41,53.27,47.82c0,23.9-19.81,47.81-53.27,47.81ZM181.3,172.66c-17.76,0-29.52,11.35-29.52,28.42s11.76,28.41,29.52,28.41,29.36-11.33,29.36-28.41-11.74-28.42-29.36-28.42Z"/><path class="cls-1" d="M266.07,204.09l-36.75-49.58h28.14l20.21,29.23,20.36-29.23h28l-36.74,49.58v43.57h-23.21v-43.57Z"/><path class="cls-1" d="M415.4,247.65h-25l-7.65-18.44h-41.65l-6.96,18.44h-24.59l37.57-93.15h26.89l41.4,93.15ZM360.9,176.76l-13.66,36.2h28.68l-15.03-36.2Z"/><path class="cls-1" d="M500.05,247.65h-71.01v-93.15h23.21v76.07h47.8v17.08Z"/><path class="cls-1" d="M612.4,247.65h-71.03v-93.15h23.22v76.07h47.81v17.08Z"/><path class="cls-1" d="M681.93,247.65h-54.49v-73.9h53.72v13.55h-35.32v15.49h33.71v13.54h-33.71v17.76h36.08v13.54Z"/><path class="cls-1" d="M740.78,154.51c21.31,0,30.88,14.89,30.88,27.59s-9.28,28.14-30.73,28.14h-18.44v37.41h-23.24v-93.15h41.53ZM722.49,193.16h10.78c10.66,0,14.47-3.83,14.47-10.79,0-7.92-4.51-10.8-17.07-10.8h-8.18v21.59Z"/><path class="cls-1" d="M869.61,247.65h-25l-7.64-18.44h-41.67l-6.96,18.44h-24.59l37.56-93.15h26.91l41.39,93.15ZM815.11,176.76l-13.64,36.2h28.66l-15.02-36.2Z"/><path class="cls-1" d="M961.86,181.27c-11.88-5.73-23.35-8.61-34.83-8.61-25.27,0-34.14,15.58-34.14,29.38,0,16.52,12.97,27.44,32.24,27.44,5.73,0,8.59-.55,15.42-3.28v-10.92h-13.52v-17.08h36.75v38.1c-6.98,7.24-24.18,12.58-39.2,12.58-32.53,0-55.61-19.81-55.61-47.68s22.95-47.95,56.15-47.95c13.93,0,27.46,3.15,36.73,7.66v20.35Z"/><path class="cls-1" d="M1049.98,247.65h-68.72v-93.15h68.72v17.06h-45.48v19.54h42.47v17.08h-42.47v22.39h45.48v17.08Z"/><rect class="cls-3" x="42.02" y="42.13" width="493.82" height="73.89"/><rect class="cls-1" x="1040.59" y="42.13" width="9.39" height="73.89"/><rect class="cls-1" x="560.33" y="42.13" width="9.37" height="73.89"/><rect class="cls-1" x="583.2" y="42.13" width="9.37" height="73.89"/><rect class="cls-1" x="606.06" y="42.13" width="9.38" height="73.89"/><rect class="cls-1" x="628.92" y="42.13" width="9.38" height="73.89"/><rect class="cls-1" x="651.79" y="42.13" width="9.38" height="73.89"/><rect class="cls-1" x="674.68" y="42.13" width="9.39" height="73.89"/><rect class="cls-1" x="697.55" y="42.13" width="9.38" height="73.89"/><rect class="cls-1" x="720.42" y="42.13" width="9.38" height="73.89"/><rect class="cls-1" x="743.29" y="42.13" width="9.38" height="73.89"/><rect class="cls-1" x="766.16" y="42.13" width="9.38" height="73.89"/><rect class="cls-1" x="789.02" y="42.13" width="9.37" height="73.89"/><rect class="cls-1" x="811.89" y="42.13" width="9.37" height="73.89"/><rect class="cls-1" x="834.76" y="42.13" width="9.37" height="73.89"/><rect class="cls-1" x="857.64" y="42.13" width="9.38" height="73.89"/><rect class="cls-1" x="880.5" y="42.13" width="9.39" height="73.89"/><rect class="cls-1" x="903.39" y="42.13" width="9.37" height="73.89"/><rect class="cls-1" x="926.24" y="42.13" width="9.39" height="73.89"/><rect class="cls-1" x="949.12" y="42.13" width="9.38" height="73.89"/><rect class="cls-1" x="971.99" y="42.13" width="9.38" height="73.89"/><rect class="cls-1" x="994.86" y="42.13" width="9.37" height="73.89"/><rect class="cls-1" x="1017.72" y="42.13" width="9.38" height="73.89"/><rect class="cls-3" x="42.02" y="285.91" width="493.82" height="73.89"/><rect class="cls-1" x="1040.59" y="285.91" width="9.39" height="73.89"/><rect class="cls-1" x="560.33" y="285.91" width="9.37" height="73.89"/><rect class="cls-1" x="583.2" y="285.91" width="9.37" height="73.89"/><rect class="cls-1" x="606.06" y="285.91" width="9.38" height="73.89"/><rect class="cls-1" x="628.92" y="285.91" width="9.38" height="73.89"/><rect class="cls-1" x="651.79" y="285.91" width="9.38" height="73.89"/><rect class="cls-1" x="674.68" y="285.91" width="9.39" height="73.89"/><rect class="cls-1" x="697.55" y="285.91" width="9.38" height="73.89"/><rect class="cls-1" x="720.42" y="285.91" width="9.38" height="73.89"/><rect class="cls-1" x="743.29" y="285.91" width="9.38" height="73.89"/><rect class="cls-1" x="766.16" y="285.91" width="9.38" height="73.89"/><rect class="cls-1" x="789.02" y="285.91" width="9.37" height="73.89"/><rect class="cls-1" x="811.89" y="285.91" width="9.37" height="73.89"/><rect class="cls-1" x="834.76" y="285.91" width="9.37" height="73.89"/><rect class="cls-1" x="857.64" y="285.91" width="9.38" height="73.89"/><rect class="cls-1" x="880.5" y="285.91" width="9.39" height="73.89"/><rect class="cls-1" x="903.39" y="285.91" width="9.37" height="73.89"/><rect class="cls-1" x="926.24" y="285.91" width="9.39" height="73.89"/><rect class="cls-1" x="949.12" y="285.91" width="9.38" height="73.89"/><rect class="cls-1" x="971.99" y="285.91" width="9.38" height="73.89"/><rect class="cls-1" x="994.86" y="285.91" width="9.37" height="73.89"/><rect class="cls-1" x="1017.72" y="285.91" width="9.38" height="73.89"/><path class="cls-1" d="M380.51,431.65h-10.19v17.54h-5.75v-43.37h14.36c4.88,0,8.64,1.11,11.27,3.34,2.63,2.22,3.95,5.46,3.95,9.71,0,2.7-.73,5.05-2.19,7.06-1.46,2-3.49,3.5-6.09,4.5l10.19,18.41v.36h-6.14l-9.41-17.54ZM370.32,426.98h8.79c2.84,0,5.1-.74,6.78-2.21,1.68-1.47,2.52-3.44,2.52-5.91,0-2.69-.8-4.74-2.4-6.18-1.6-1.43-3.91-2.16-6.93-2.18h-8.76v16.47Z"/><path class="cls-1" d="M399.97,432.78c0-3.16.62-6,1.86-8.52,1.24-2.52,2.97-4.47,5.18-5.84,2.21-1.37,4.74-2.06,7.58-2.06,4.39,0,7.94,1.52,10.65,4.56,2.71,3.04,4.07,7.08,4.07,12.12v.39c0,3.14-.6,5.95-1.8,8.44-1.2,2.49-2.92,4.43-5.15,5.82-2.23,1.39-4.8,2.08-7.7,2.08-4.37,0-7.91-1.52-10.62-4.56-2.71-3.04-4.07-7.06-4.07-12.06v-.39ZM405.51,433.44c0,3.57.83,6.44,2.49,8.61,1.66,2.16,3.88,3.25,6.66,3.25s5.02-1.1,6.67-3.29c1.65-2.19,2.47-5.27,2.47-9.22,0-3.53-.84-6.4-2.52-8.59-1.68-2.19-3.91-3.29-6.69-3.29s-4.91,1.08-6.58,3.25c-1.67,2.16-2.5,5.26-2.5,9.29Z"/><path class="cls-1" d="M446.3,441.12l7.51-24.16h5.9l-12.96,37.2c-2.01,5.36-5.19,8.04-9.56,8.04l-1.04-.09-2.06-.39v-4.47l1.49.12c1.87,0,3.32-.38,4.36-1.13,1.04-.75,1.9-2.13,2.58-4.14l1.22-3.28-11.5-31.87h6.02l8.04,24.16Z"/><path class="cls-1" d="M484.28,449.2c-.32-.64-.58-1.77-.77-3.4-2.56,2.66-5.62,3.99-9.17,3.99-3.18,0-5.78-.9-7.82-2.7-2.04-1.8-3.05-4.08-3.05-6.84,0-3.36,1.28-5.96,3.83-7.82,2.55-1.86,6.14-2.79,10.77-2.79h5.36v-2.53c0-1.93-.58-3.46-1.73-4.6-1.15-1.14-2.85-1.71-5.09-1.71-1.97,0-3.61.5-4.94,1.49-1.33.99-2,2.19-2,3.6h-5.54c0-1.61.57-3.16,1.71-4.66,1.14-1.5,2.69-2.69,4.65-3.56,1.96-.87,4.11-1.31,6.45-1.31,3.71,0,6.62.93,8.73,2.79,2.1,1.86,3.2,4.41,3.28,7.67v14.83c0,2.96.38,5.31,1.13,7.06v.48h-5.78ZM475.14,445c1.73,0,3.37-.45,4.91-1.34s2.67-2.06,3.37-3.49v-6.61h-4.32c-6.75,0-10.13,1.98-10.13,5.93,0,1.73.58,3.08,1.73,4.05,1.15.97,2.63,1.46,4.44,1.46Z"/><path class="cls-1" d="M503.66,449.2h-5.51v-45.75h5.51v45.75Z"/><path class="cls-1" d="M537.24,444.52h20.55v4.68h-26.3v-43.37h5.75v38.69Z"/><path class="cls-1" d="M576.94,449.79c-4.37,0-7.92-1.43-10.66-4.3s-4.11-6.71-4.11-11.51v-1.01c0-3.2.61-6.05,1.83-8.56,1.22-2.51,2.93-4.48,5.12-5.9s4.57-2.13,7.13-2.13c4.19,0,7.45,1.38,9.77,4.14,2.32,2.76,3.49,6.71,3.49,11.86v2.29h-21.83c.08,3.18,1.01,5.74,2.79,7.7,1.78,1.96,4.04,2.93,6.78,2.93,1.95,0,3.59-.4,4.94-1.19,1.35-.79,2.53-1.85,3.54-3.16l3.37,2.62c-2.7,4.15-6.75,6.22-12.15,6.22ZM576.25,420.9c-2.22,0-4.09.81-5.6,2.43s-2.44,3.89-2.8,6.81h16.14v-.42c-.16-2.8-.91-4.97-2.26-6.51s-3.18-2.31-5.48-2.31Z"/><path class="cls-1" d="M603.35,432.22v16.98h-5.72v-43.37h16c4.75,0,8.46,1.21,11.15,3.63s4.04,5.63,4.04,9.62c0,4.21-1.32,7.45-3.95,9.73-2.63,2.27-6.4,3.41-11.3,3.41h-10.22ZM603.35,427.54h10.28c3.06,0,5.4-.72,7.03-2.16,1.63-1.44,2.44-3.53,2.44-6.25s-.81-4.65-2.44-6.21-3.86-2.36-6.7-2.42h-10.6v17.04Z"/><path class="cls-1" d="M655.34,449.2c-.32-.64-.58-1.77-.77-3.4-2.56,2.66-5.62,3.99-9.17,3.99-3.18,0-5.78-.9-7.82-2.7-2.04-1.8-3.05-4.08-3.05-6.84,0-3.36,1.28-5.96,3.83-7.82,2.55-1.86,6.14-2.79,10.77-2.79h5.36v-2.53c0-1.93-.58-3.46-1.73-4.6-1.15-1.14-2.85-1.71-5.09-1.71-1.97,0-3.61.5-4.94,1.49-1.33.99-2,2.19-2,3.6h-5.54c0-1.61.57-3.16,1.71-4.66s2.69-2.69,4.65-3.56,4.11-1.31,6.45-1.31c3.71,0,6.62.93,8.73,2.79s3.2,4.41,3.28,7.67v14.83c0,2.96.38,5.31,1.13,7.06v.48h-5.78ZM646.2,445c1.73,0,3.37-.45,4.92-1.34s2.67-2.06,3.37-3.49v-6.61h-4.32c-6.75,0-10.13,1.98-10.13,5.93,0,1.73.58,3.08,1.73,4.05s2.63,1.46,4.44,1.46Z"/><path class="cls-1" d="M667.49,432.81c0-5.02,1.16-9.02,3.48-11.99,2.32-2.97,5.4-4.45,9.23-4.45s7,1.39,9.2,4.17l.27-3.57h5.03v31.45c0,4.17-1.24,7.46-3.71,9.86-2.47,2.4-5.79,3.6-9.96,3.6-2.32,0-4.6-.5-6.82-1.49s-3.92-2.35-5.09-4.08l2.86-3.31c2.36,2.92,5.25,4.38,8.67,4.38,2.68,0,4.77-.75,6.27-2.26,1.5-1.51,2.25-3.63,2.25-6.38v-2.77c-2.2,2.54-5.21,3.81-9.03,3.81s-6.83-1.52-9.16-4.56c-2.33-3.04-3.5-7.18-3.5-12.42ZM673.03,433.44c0,3.63.75,6.49,2.23,8.56,1.49,2.08,3.57,3.11,6.26,3.11,3.47,0,6.03-1.58,7.65-4.74v-14.71c-1.69-3.08-4.22-4.62-7.6-4.62-2.68,0-4.78,1.04-6.28,3.13s-2.26,5.17-2.26,9.26Z"/><path class="cls-1" d="M717.03,449.79c-4.37,0-7.92-1.43-10.66-4.3s-4.11-6.71-4.11-11.51v-1.01c0-3.2.61-6.05,1.83-8.56,1.22-2.51,2.93-4.48,5.12-5.9s4.57-2.13,7.13-2.13c4.19,0,7.45,1.38,9.77,4.14,2.32,2.76,3.49,6.71,3.49,11.86v2.29h-21.83c.08,3.18,1.01,5.74,2.79,7.7,1.78,1.96,4.04,2.93,6.78,2.93,1.95,0,3.59-.4,4.94-1.19,1.35-.79,2.53-1.85,3.54-3.16l3.37,2.62c-2.7,4.15-6.75,6.22-12.15,6.22ZM716.35,420.9c-2.22,0-4.09.81-5.6,2.43s-2.44,3.89-2.8,6.81h16.14v-.42c-.16-2.8-.91-4.97-2.26-6.51s-3.18-2.31-5.48-2.31Z"/><path class="cls-1" d="M70.02,504.85h-10.19v17.54h-5.75v-43.37h14.36c4.88,0,8.64,1.11,11.27,3.34,2.63,2.22,3.95,5.46,3.95,9.71,0,2.7-.73,5.05-2.19,7.06-1.46,2-3.49,3.5-6.09,4.5l10.19,18.41v.36h-6.14l-9.41-17.54ZM59.84,500.18h8.79c2.84,0,5.1-.74,6.78-2.21,1.68-1.47,2.52-3.44,2.52-5.91,0-2.69-.8-4.74-2.4-6.18-1.6-1.43-3.91-2.16-6.93-2.18h-8.76v16.47Z"/><path class="cls-1" d="M104.29,522.99c-4.37,0-7.92-1.43-10.66-4.3s-4.11-6.71-4.11-11.51v-1.01c0-3.2.61-6.05,1.83-8.56,1.22-2.51,2.93-4.48,5.12-5.9,2.19-1.42,4.57-2.13,7.13-2.13,4.19,0,7.45,1.38,9.77,4.14,2.32,2.76,3.48,6.71,3.48,11.86v2.29h-21.83c.08,3.18,1.01,5.74,2.79,7.7,1.78,1.96,4.04,2.93,6.78,2.93,1.95,0,3.59-.4,4.94-1.19,1.35-.79,2.53-1.85,3.54-3.16l3.37,2.62c-2.7,4.15-6.75,6.22-12.15,6.22ZM103.6,494.1c-2.22,0-4.09.81-5.6,2.43-1.51,1.62-2.44,3.89-2.8,6.81h16.14v-.42c-.16-2.8-.91-4.97-2.26-6.51-1.35-1.54-3.18-2.31-5.48-2.31Z"/><path class="cls-1" d="M143.37,522.4c-.32-.64-.58-1.77-.77-3.4-2.56,2.66-5.62,3.99-9.17,3.99-3.18,0-5.78-.9-7.82-2.7-2.04-1.8-3.05-4.08-3.05-6.84,0-3.36,1.28-5.96,3.83-7.82,2.55-1.86,6.14-2.79,10.77-2.79h5.36v-2.53c0-1.93-.58-3.46-1.73-4.6-1.15-1.14-2.85-1.71-5.09-1.71-1.97,0-3.61.5-4.94,1.49-1.33.99-2,2.19-2,3.6h-5.54c0-1.61.57-3.16,1.71-4.66,1.14-1.5,2.69-2.69,4.65-3.56,1.96-.87,4.11-1.31,6.45-1.31,3.71,0,6.62.93,8.73,2.79,2.1,1.86,3.2,4.41,3.28,7.67v14.83c0,2.96.38,5.31,1.13,7.06v.48h-5.78ZM134.23,518.2c1.73,0,3.37-.45,4.91-1.34s2.67-2.06,3.37-3.49v-6.61h-4.32c-6.75,0-10.13,1.98-10.13,5.93,0,1.73.58,3.08,1.73,4.05,1.15.97,2.63,1.46,4.44,1.46Z"/><path class="cls-1" d="M162.74,522.4h-5.51v-45.75h5.51v45.75Z"/><path class="cls-1" d="M215.09,502.35h-18.79v15.37h21.83v4.68h-27.55v-43.37h27.25v4.68h-21.53v13.97h18.79v4.68Z"/><path class="cls-1" d="M243.75,513.85c0-1.49-.56-2.65-1.68-3.47-1.12-.82-3.08-1.53-5.87-2.13-2.79-.6-5-1.31-6.64-2.14-1.64-.83-2.85-1.83-3.63-2.98-.78-1.15-1.18-2.52-1.18-4.11,0-2.64,1.12-4.88,3.35-6.7,2.23-1.83,5.09-2.74,8.56-2.74,3.65,0,6.62.94,8.89,2.83,2.27,1.89,3.41,4.3,3.41,7.24h-5.54c0-1.51-.64-2.81-1.92-3.9-1.28-1.09-2.89-1.64-4.84-1.64s-3.57.44-4.71,1.31-1.7,2.02-1.7,3.42c0,1.33.53,2.33,1.58,3.01,1.05.67,2.95,1.32,5.7,1.94,2.75.62,4.98,1.35,6.69,2.2,1.71.85,2.97,1.88,3.8,3.08.82,1.2,1.24,2.67,1.24,4.39,0,2.88-1.15,5.19-3.46,6.92-2.3,1.74-5.29,2.61-8.97,2.61-2.58,0-4.87-.46-6.85-1.37-1.99-.91-3.54-2.19-4.66-3.83-1.12-1.64-1.68-3.41-1.68-5.32h5.51c.1,1.85.84,3.31,2.22,4.39,1.38,1.08,3.2,1.62,5.47,1.62,2.08,0,3.76-.42,5.02-1.27,1.26-.84,1.89-1.97,1.89-3.38Z"/><path class="cls-1" d="M264.99,482.37v7.8h6.02v4.26h-6.02v20.01c0,1.29.27,2.26.8,2.91.54.65,1.45.97,2.74.97.64,0,1.51-.12,2.62-.36v4.44c-1.45.39-2.86.59-4.23.59-2.46,0-4.32-.74-5.57-2.23-1.25-1.49-1.88-3.6-1.88-6.34v-19.99h-5.87v-4.26h5.87v-7.8h5.51Z"/><path class="cls-1" d="M297.6,522.4c-.32-.64-.58-1.77-.77-3.4-2.56,2.66-5.62,3.99-9.17,3.99-3.18,0-5.78-.9-7.82-2.7-2.04-1.8-3.05-4.08-3.05-6.84,0-3.36,1.28-5.96,3.83-7.82,2.55-1.86,6.14-2.79,10.77-2.79h5.36v-2.53c0-1.93-.58-3.46-1.73-4.6-1.15-1.14-2.85-1.71-5.09-1.71-1.97,0-3.61.5-4.94,1.49-1.33.99-2,2.19-2,3.6h-5.54c0-1.61.57-3.16,1.71-4.66,1.14-1.5,2.69-2.69,4.65-3.56,1.96-.87,4.11-1.31,6.45-1.31,3.71,0,6.62.93,8.73,2.79,2.1,1.86,3.2,4.41,3.28,7.67v14.83c0,2.96.38,5.31,1.13,7.06v.48h-5.78ZM288.45,518.2c1.73,0,3.37-.45,4.91-1.34s2.67-2.06,3.37-3.49v-6.61h-4.32c-6.75,0-10.13,1.98-10.13,5.93,0,1.73.58,3.08,1.73,4.05,1.15.97,2.63,1.46,4.44,1.46Z"/><path class="cls-1" d="M318.8,482.37v7.8h6.02v4.26h-6.02v20.01c0,1.29.27,2.26.8,2.91.54.65,1.45.97,2.74.97.64,0,1.51-.12,2.62-.36v4.44c-1.45.39-2.86.59-4.23.59-2.46,0-4.32-.74-5.57-2.23-1.25-1.49-1.88-3.6-1.88-6.34v-19.99h-5.87v-4.26h5.87v-7.8h5.51Z"/><path class="cls-1" d="M344.02,522.99c-4.37,0-7.92-1.43-10.66-4.3s-4.11-6.71-4.11-11.51v-1.01c0-3.2.61-6.05,1.83-8.56,1.22-2.51,2.93-4.48,5.12-5.9,2.19-1.42,4.57-2.13,7.13-2.13,4.19,0,7.45,1.38,9.77,4.14,2.32,2.76,3.48,6.71,3.48,11.86v2.29h-21.83c.08,3.18,1.01,5.74,2.79,7.7,1.78,1.96,4.04,2.93,6.78,2.93,1.95,0,3.59-.4,4.94-1.19,1.35-.79,2.53-1.85,3.54-3.16l3.37,2.62c-2.7,4.15-6.75,6.22-12.15,6.22ZM343.33,494.1c-2.22,0-4.09.81-5.6,2.43-1.51,1.62-2.44,3.89-2.8,6.81h16.14v-.42c-.16-2.8-.91-4.97-2.26-6.51-1.35-1.54-3.18-2.31-5.48-2.31Z"/><path class="cls-1" d="M394.75,503.07c-4.9-1.41-8.47-3.14-10.71-5.2-2.23-2.05-3.35-4.59-3.35-7.61,0-3.42,1.37-6.24,4.1-8.47,2.73-2.23,6.28-3.35,10.65-3.35,2.98,0,5.63.58,7.97,1.73,2.33,1.15,4.14,2.74,5.42,4.77,1.28,2.03,1.92,4.24,1.92,6.64h-5.75c0-2.63-.83-4.7-2.5-6.2-1.67-1.5-4.02-2.26-7.06-2.26-2.82,0-5.02.62-6.6,1.87-1.58,1.24-2.37,2.97-2.37,5.18,0,1.77.75,3.27,2.25,4.49,1.5,1.22,4.05,2.34,7.65,3.36,3.6,1.01,6.42,2.13,8.46,3.35,2.04,1.22,3.54,2.65,4.53,4.27.98,1.63,1.47,3.54,1.47,5.75,0,3.51-1.37,6.33-4.11,8.44-2.74,2.11-6.4,3.17-10.99,3.17-2.98,0-5.76-.57-8.34-1.71-2.58-1.14-4.57-2.71-5.97-4.69-1.4-1.99-2.1-4.24-2.1-6.76h5.75c0,2.62.97,4.69,2.9,6.21,1.94,1.52,4.52,2.28,7.76,2.28,3.02,0,5.33-.62,6.94-1.85,1.61-1.23,2.41-2.91,2.41-5.03s-.74-3.77-2.23-4.93c-1.49-1.16-4.19-2.31-8.1-3.44Z"/><path class="cls-1" d="M431.74,522.99c-4.37,0-7.92-1.43-10.66-4.3s-4.11-6.71-4.11-11.51v-1.01c0-3.2.61-6.05,1.83-8.56,1.22-2.51,2.93-4.48,5.12-5.9,2.19-1.42,4.57-2.13,7.13-2.13,4.19,0,7.45,1.38,9.77,4.14,2.32,2.76,3.48,6.71,3.48,11.86v2.29h-21.83c.08,3.18,1.01,5.74,2.79,7.7,1.78,1.96,4.04,2.93,6.78,2.93,1.95,0,3.59-.4,4.94-1.19,1.35-.79,2.53-1.85,3.54-3.16l3.37,2.62c-2.7,4.15-6.75,6.22-12.15,6.22ZM431.06,494.1c-2.22,0-4.09.81-5.6,2.43-1.51,1.62-2.44,3.89-2.8,6.81h16.14v-.42c-.16-2.8-.91-4.97-2.26-6.51-1.35-1.54-3.18-2.31-5.48-2.31Z"/><path class="cls-1" d="M467.17,495.11c-.83-.14-1.74-.21-2.71-.21-3.61,0-6.07,1.54-7.36,4.62v22.88h-5.51v-32.23h5.36l.09,3.72c1.81-2.88,4.37-4.32,7.68-4.32,1.07,0,1.89.14,2.44.42v5.12Z"/><path class="cls-1" d="M485.34,514.92l7.98-24.75h5.63l-11.56,32.23h-4.2l-11.68-32.23h5.63l8.19,24.75Z"/><path class="cls-1" d="M504.65,481.62c0-.89.27-1.65.82-2.26.55-.62,1.36-.92,2.43-.92s1.89.31,2.44.92c.56.62.83,1.37.83,2.26s-.28,1.64-.83,2.23c-.56.6-1.37.89-2.44.89s-1.88-.3-2.43-.89c-.55-.6-.82-1.34-.82-2.23ZM510.61,522.4h-5.51v-32.23h5.51v32.23Z"/><path class="cls-1" d="M532.59,518.49c1.97,0,3.68-.6,5.15-1.79,1.47-1.19,2.28-2.68,2.44-4.47h5.21c-.1,1.85-.73,3.6-1.91,5.27s-2.74,3-4.69,3.99c-1.96.99-4.03,1.49-6.21,1.49-4.39,0-7.88-1.46-10.47-4.39-2.59-2.93-3.89-6.93-3.89-12.02v-.92c0-3.14.58-5.93,1.73-8.37,1.15-2.44,2.8-4.34,4.96-5.69,2.15-1.35,4.7-2.03,7.64-2.03,3.61,0,6.62,1.08,9.01,3.25,2.39,2.16,3.67,4.97,3.83,8.43h-5.21c-.16-2.08-.95-3.8-2.37-5.14-1.42-1.34-3.17-2.01-5.26-2.01-2.8,0-4.97,1.01-6.51,3.02-1.54,2.02-2.31,4.93-2.31,8.74v1.04c0,3.71.76,6.57,2.29,8.58,1.53,2.01,3.71,3.01,6.55,3.01Z"/><path class="cls-1" d="M565.72,522.99c-4.37,0-7.92-1.43-10.66-4.3s-4.11-6.71-4.11-11.51v-1.01c0-3.2.61-6.05,1.83-8.56,1.22-2.51,2.93-4.48,5.12-5.9s4.57-2.13,7.13-2.13c4.19,0,7.45,1.38,9.77,4.14,2.32,2.76,3.49,6.71,3.49,11.86v2.29h-21.83c.08,3.18,1.01,5.74,2.79,7.7,1.78,1.96,4.04,2.93,6.78,2.93,1.95,0,3.59-.4,4.94-1.19,1.35-.79,2.53-1.85,3.54-3.16l3.37,2.62c-2.7,4.15-6.75,6.22-12.15,6.22ZM565.03,494.1c-2.22,0-4.09.81-5.6,2.43s-2.44,3.89-2.8,6.81h16.14v-.42c-.16-2.8-.91-4.97-2.26-6.51s-3.18-2.31-5.48-2.31Z"/><path class="cls-1" d="M603.74,513.85c0-1.49-.56-2.65-1.68-3.47-1.12-.82-3.08-1.53-5.87-2.13s-5-1.31-6.64-2.14c-1.64-.83-2.85-1.83-3.63-2.98-.79-1.15-1.18-2.52-1.18-4.11,0-2.64,1.12-4.88,3.35-6.7,2.23-1.83,5.09-2.74,8.56-2.74,3.65,0,6.62.94,8.89,2.83,2.27,1.89,3.41,4.3,3.41,7.24h-5.54c0-1.51-.64-2.81-1.92-3.9-1.28-1.09-2.89-1.64-4.84-1.64s-3.57.44-4.71,1.31-1.7,2.02-1.7,3.42c0,1.33.53,2.33,1.58,3.01s2.95,1.32,5.7,1.94c2.75.62,4.98,1.35,6.69,2.2,1.71.85,2.97,1.88,3.8,3.08.82,1.2,1.24,2.67,1.24,4.39,0,2.88-1.15,5.19-3.46,6.92-2.3,1.74-5.29,2.61-8.97,2.61-2.58,0-4.87-.46-6.85-1.37s-3.54-2.19-4.66-3.83c-1.12-1.64-1.68-3.41-1.68-5.32h5.51c.1,1.85.84,3.31,2.22,4.39,1.38,1.08,3.2,1.62,5.47,1.62,2.08,0,3.76-.42,5.02-1.27,1.26-.84,1.89-1.97,1.89-3.38Z"/><path class="cls-1" d="M641.19,517.72h20.55v4.68h-26.3v-43.37h5.75v38.69Z"/><path class="cls-1" d="M674.54,482.37v7.8h6.02v4.26h-6.02v20.01c0,1.29.27,2.26.8,2.91.54.65,1.45.97,2.74.97.64,0,1.51-.12,2.62-.36v4.44c-1.45.39-2.86.59-4.23.59-2.46,0-4.32-.74-5.57-2.23-1.25-1.49-1.88-3.6-1.88-6.34v-19.99h-5.87v-4.26h5.87v-7.8h5.51Z"/><path class="cls-1" d="M685.11,506.02c0-4.94,1.17-8.92,3.51-11.93,2.34-3.01,5.41-4.51,9.2-4.51s6.76,1.29,8.97,3.87v-16.8h5.51v45.75h-5.06l-.27-3.46c-2.2,2.7-5.27,4.05-9.2,4.05s-6.78-1.53-9.13-4.59c-2.35-3.06-3.53-7.05-3.53-11.97v-.42ZM690.62,506.64c0,3.65.75,6.51,2.26,8.58,1.51,2.06,3.59,3.1,6.25,3.1,3.5,0,6.05-1.57,7.66-4.71v-14.8c-1.65-3.04-4.18-4.56-7.6-4.56-2.7,0-4.81,1.04-6.31,3.13s-2.26,5.17-2.26,9.26Z"/><path class="cls-1" d="M721.29,519.51c0-.95.28-1.75.85-2.38.57-.64,1.42-.95,2.55-.95s1.99.32,2.58.95c.59.63.88,1.43.88,2.38s-.29,1.68-.88,2.29-1.44.92-2.58.92-1.98-.31-2.55-.92c-.57-.62-.85-1.38-.85-2.29Z"/><path class="cls-1" d="M736.78,531.03l-3.13-2.14c1.87-2.6,2.84-5.28,2.92-8.04v-4.97h5.39v4.32c0,2.01-.49,4.01-1.47,6.02-.98,2.01-2.22,3.61-3.71,4.83Z"/><path class="cls-1" d="M767.94,522.4v-43.37h14.18c4.71,0,8.25.97,10.62,2.92,2.37,1.95,3.56,4.83,3.56,8.64,0,2.03-.58,3.82-1.73,5.38-1.15,1.56-2.72,2.77-4.71,3.62,2.34.66,4.2,1.9,5.56,3.74,1.36,1.84,2.04,4.03,2.04,6.57,0,3.89-1.26,6.95-3.78,9.17-2.52,2.22-6.09,3.34-10.69,3.34h-15.04ZM773.66,497.53h8.64c2.5,0,4.5-.63,6-1.88s2.25-2.96,2.25-5.1c0-2.39-.7-4.12-2.08-5.21-1.39-1.08-3.5-1.63-6.34-1.63h-8.46v13.82ZM773.66,502.11v15.61h9.44c2.66,0,4.76-.69,6.3-2.07,1.54-1.38,2.31-3.28,2.31-5.7,0-5.22-2.84-7.83-8.52-7.83h-9.53Z"/><path class="cls-1" d="M821.23,495.11c-.83-.14-1.74-.21-2.71-.21-3.61,0-6.07,1.54-7.36,4.62v22.88h-5.51v-32.23h5.36l.09,3.72c1.81-2.88,4.37-4.32,7.68-4.32,1.07,0,1.89.14,2.44.42v5.12Z"/><path class="cls-1" d="M825,505.98c0-3.16.62-6,1.86-8.52,1.24-2.52,2.97-4.47,5.18-5.84,2.21-1.37,4.74-2.06,7.58-2.06,4.39,0,7.94,1.52,10.65,4.56,2.71,3.04,4.07,7.08,4.07,12.12v.39c0,3.14-.6,5.95-1.8,8.44-1.2,2.49-2.92,4.43-5.15,5.82-2.23,1.39-4.8,2.08-7.7,2.08-4.37,0-7.91-1.52-10.62-4.56-2.71-3.04-4.07-7.06-4.07-12.06v-.39ZM830.53,506.64c0,3.57.83,6.44,2.49,8.61s3.88,3.25,6.66,3.25,5.02-1.1,6.67-3.29c1.65-2.19,2.47-5.27,2.47-9.22,0-3.53-.84-6.4-2.52-8.59-1.68-2.19-3.91-3.29-6.69-3.29s-4.92,1.08-6.58,3.25c-1.67,2.16-2.5,5.26-2.5,9.29Z"/><path class="cls-1" d="M870.76,507.48l-3.46,3.6v11.32h-5.51v-45.75h5.51v27.67l2.95-3.54,10.04-10.6h6.7l-12.54,13.46,14,18.76h-6.46l-11.23-14.92Z"/><path class="cls-1" d="M904.88,522.99c-4.37,0-7.92-1.43-10.66-4.3s-4.11-6.71-4.11-11.51v-1.01c0-3.2.61-6.05,1.83-8.56,1.22-2.51,2.93-4.48,5.12-5.9s4.57-2.13,7.13-2.13c4.19,0,7.45,1.38,9.77,4.14,2.32,2.76,3.49,6.71,3.49,11.86v2.29h-21.83c.08,3.18,1.01,5.74,2.79,7.7,1.78,1.96,4.04,2.93,6.78,2.93,1.95,0,3.59-.4,4.94-1.19,1.35-.79,2.53-1.85,3.54-3.16l3.37,2.62c-2.7,4.15-6.75,6.22-12.15,6.22ZM904.2,494.1c-2.22,0-4.09.81-5.6,2.43s-2.44,3.89-2.8,6.81h16.14v-.42c-.16-2.8-.91-4.97-2.26-6.51s-3.18-2.31-5.48-2.31Z"/><path class="cls-1" d="M940.31,495.11c-.83-.14-1.74-.21-2.71-.21-3.61,0-6.07,1.54-7.36,4.62v22.88h-5.51v-32.23h5.36l.09,3.72c1.81-2.88,4.37-4.32,7.68-4.32,1.07,0,1.89.14,2.44.42v5.12Z"/><path class="cls-1" d="M965.83,522.4c-.32-.64-.58-1.77-.77-3.4-2.56,2.66-5.62,3.99-9.17,3.99-3.18,0-5.78-.9-7.82-2.7-2.04-1.8-3.05-4.08-3.05-6.84,0-3.36,1.28-5.96,3.83-7.82,2.55-1.86,6.14-2.79,10.77-2.79h5.36v-2.53c0-1.93-.58-3.46-1.73-4.6-1.15-1.14-2.85-1.71-5.09-1.71-1.97,0-3.61.5-4.94,1.49-1.33.99-2,2.19-2,3.6h-5.54c0-1.61.57-3.16,1.71-4.66s2.69-2.69,4.65-3.56,4.11-1.31,6.45-1.31c3.71,0,6.62.93,8.73,2.79s3.2,4.41,3.28,7.67v14.83c0,2.96.38,5.31,1.13,7.06v.48h-5.78ZM956.68,518.2c1.73,0,3.37-.45,4.92-1.34s2.67-2.06,3.37-3.49v-6.61h-4.32c-6.75,0-10.13,1.98-10.13,5.93,0,1.73.58,3.08,1.73,4.05s2.63,1.46,4.44,1.46Z"/><path class="cls-1" d="M977.98,506.02c0-5.02,1.16-9.02,3.48-11.99,2.32-2.97,5.4-4.45,9.23-4.45s7,1.39,9.2,4.17l.27-3.57h5.03v31.45c0,4.17-1.24,7.46-3.71,9.86-2.47,2.4-5.79,3.6-9.96,3.6-2.32,0-4.6-.5-6.82-1.49s-3.92-2.35-5.09-4.08l2.86-3.31c2.36,2.92,5.25,4.38,8.67,4.38,2.68,0,4.77-.75,6.27-2.26,1.5-1.51,2.25-3.63,2.25-6.38v-2.77c-2.2,2.54-5.21,3.81-9.03,3.81s-6.83-1.52-9.16-4.56c-2.33-3.04-3.5-7.18-3.5-12.42ZM983.52,506.64c0,3.63.75,6.49,2.23,8.56,1.49,2.08,3.57,3.11,6.26,3.11,3.47,0,6.03-1.58,7.65-4.74v-14.71c-1.69-3.08-4.22-4.62-7.6-4.62-2.68,0-4.78,1.04-6.28,3.13s-2.26,5.17-2.26,9.26Z"/><path class="cls-1" d="M1027.52,522.99c-4.37,0-7.92-1.43-10.66-4.3s-4.11-6.71-4.11-11.51v-1.01c0-3.2.61-6.05,1.83-8.56,1.22-2.51,2.93-4.48,5.12-5.9s4.57-2.13,7.13-2.13c4.19,0,7.45,1.38,9.77,4.14,2.32,2.76,3.49,6.71,3.49,11.86v2.29h-21.83c.08,3.18,1.01,5.74,2.79,7.7,1.78,1.96,4.04,2.93,6.78,2.93,1.95,0,3.59-.4,4.94-1.19,1.35-.79,2.53-1.85,3.54-3.16l3.37,2.62c-2.7,4.15-6.75,6.22-12.15,6.22ZM1026.83,494.1c-2.22,0-4.09.81-5.6,2.43s-2.44,3.89-2.8,6.81h16.14v-.42c-.16-2.8-.91-4.97-2.26-6.51s-3.18-2.31-5.48-2.31Z"/></svg>