<svg width="135" height="135" viewBox="0 0 135 135" fill="none" xmlns="http://www.w3.org/2000/svg">
<path d="M135 0H0V135H135V0Z" fill="#DD0000"/>
<path d="M10.4358 76.9604L15.2216 71.9757C16.8036 73.7615 19.0575 75.0077 21.7474 75.0077C23.883 75.0077 25.465 74.0109 25.465 72.2242C25.465 70.4376 23.3295 69.5242 20.877 68.5274L18.8995 67.7383C15.4193 66.3679 12.0575 63.7504 12.0575 59.0151C12.0575 53.6567 16.5264 49.4194 22.3407 49.4194C26.0583 49.4194 29.3415 50.7907 31.6748 52.9919L27.4823 58.2669C26.1766 57.1041 24.4763 56.2733 22.4987 56.2733C20.5212 56.2733 19.1766 57.1041 19.1766 58.5997C19.1766 60.1779 20.9961 60.9261 23.2111 61.7151L24.9512 62.3799C28.5902 63.7921 32.5841 66.2845 32.5841 72.0165C32.5841 77.7486 27.8778 82.0685 21.7474 82.0685C17.0808 82.0685 13.086 80.075 10.4358 76.9595V76.9604Z" fill="white"/>
<path d="M36.2542 76.6145C34.8302 75.1189 34.0392 73.2496 34.0392 70.3419V58.1712H40.6834V69.7605C40.6834 71.2978 40.9208 71.9201 41.395 72.4189C41.9096 72.9594 42.7006 73.2913 43.6497 73.2913C44.5987 73.2913 45.3897 72.9594 45.9044 72.4189C46.3793 71.9201 46.616 71.297 46.616 69.7605V58.1712H53.2602V70.3419C53.2602 73.2496 52.4692 75.1189 51.0452 76.6145C49.3051 78.442 46.6549 79.6056 43.6489 79.6056C40.6429 79.6056 37.9538 78.4429 36.2534 76.6145H36.2542Z" fill="white"/>
<path d="M78.6179 58.172V51.5593H71.8764V56.6307C71.8764 57.4819 71.2193 58.172 70.4088 58.172H66.3564V51.5593H59.6149V56.5301C59.6149 57.4369 58.915 58.172 58.0516 58.172H54.9934V64.546H59.6157V78.9408H66.3572V64.546H71.8772V78.9408H78.6187V64.546H82.9513V58.172H78.6187H78.6179Z" fill="white"/>
<path d="M111.88 58.172V59.9162C113.146 58.4623 115.044 57.5481 117.417 57.5073C119.711 57.4656 121.768 58.3797 123.231 59.9162C124.655 61.4118 125.524 63.5713 125.524 67.0196V78.9408H118.88V67.8912C118.88 66.1054 118.564 65.2746 117.971 64.6515C117.417 64.0701 116.626 63.7373 115.677 63.7373C114.728 63.7373 113.937 64.0693 113.383 64.6515C112.79 65.2746 112.474 66.1054 112.474 67.8912V78.9408H105.83V58.172H111.881H111.88Z" fill="white"/>
<path d="M93.7506 57.4745C87.9316 57.4745 83.2144 62.429 83.2144 68.5405C83.2144 74.652 87.9316 79.6064 93.7506 79.6064C99.5695 79.6064 104.287 74.652 104.287 68.5405C104.287 62.429 99.5695 57.4745 93.7506 57.4745ZM93.7506 73.3175C91.2382 73.3175 89.2015 71.1784 89.2015 68.5397C89.2015 65.901 91.2382 63.7619 93.7506 63.7619C96.263 63.7619 98.2997 65.901 98.2997 68.5397C98.2997 71.1784 96.263 73.3175 93.7506 73.3175Z" fill="white"/>
</svg>
